<svg width="18" height="18" viewBox="0 0 18 18" fill="none" xmlns="http://www.w3.org/2000/svg">
    <rect width="18" height="18" rx="9" fill="white" />
    <mask id="mask0_21_457" style="mask-type:luminance" maskUnits="userSpaceOnUse" x="8" y="9"
        width="7" height="6">
        <path
            d="M9.547 13.2813C10.1482 14.2696 11.1085 14.25 11.3641 14.25H14.4533L10.8086 9.82568C9.12738 9.89518 8.23737 10.9733 8.41998 11.4256L9.547 13.2813Z"
            fill="white" />
    </mask>
    <g mask="url(#mask0_21_457)">
        <path
            d="M9.547 13.2813C10.1482 14.2696 11.1085 14.25 11.3641 14.25H14.4533L10.8086 9.82568C9.12738 9.89518 8.23737 10.9733 8.41998 11.4256L9.547 13.2813Z"
            fill="url(#paint0_linear_21_457)" />
    </g>
    <mask id="mask1_21_457" style="mask-type:luminance" maskUnits="userSpaceOnUse" x="8" y="9"
        width="3" height="3">
        <path
            d="M8.42154 11.4255C8.41717 11.4179 8.32178 11.1948 8.32178 10.9251C8.32178 9.91508 9.21704 9.33629 10.2347 9.12723L10.8102 9.82564C9.12894 9.89514 8.23893 10.9732 8.42154 11.4255Z"
            fill="white" />
    </mask>
    <g mask="url(#mask1_21_457)">
        <path
            d="M8.42154 11.4255C8.41717 11.4179 8.32178 11.1948 8.32178 10.9251C8.32178 9.91508 9.21704 9.33629 10.2347 9.12723L10.8102 9.82564C9.12894 9.89514 8.23893 10.9732 8.42154 11.4255Z"
            fill="url(#paint1_linear_21_457)" />
    </g>
    <mask id="mask2_21_457" style="mask-type:luminance" maskUnits="userSpaceOnUse" x="7" y="8"
        width="5" height="4">
        <path
            d="M9.82826 8.14194C8.29183 8.14194 7.14453 8.39494 7.14453 8.99627C7.14453 9.21723 7.21381 9.40921 7.40153 9.74702L8.42266 11.4255C8.41828 11.4179 8.32289 11.1948 8.32289 10.9251C8.32289 9.91508 9.21815 9.33629 10.2358 9.12723C10.5313 9.06656 10.8342 9.03751 11.1307 9.03751C11.3805 9.03751 11.6143 9.05062 11.7942 9.11584C11.6881 8.7292 11.4073 8.14194 9.82826 8.14194Z"
            fill="white" />
    </mask>
    <g mask="url(#mask2_21_457)">
        <path
            d="M9.82826 8.14194C8.29183 8.14194 7.14453 8.39494 7.14453 8.99627C7.14453 9.21723 7.21381 9.40921 7.40153 9.74702L8.42266 11.4255C8.41828 11.4179 8.32289 11.1948 8.32289 10.9251C8.32289 9.91508 9.21815 9.33629 10.2358 9.12723C10.5313 9.06656 10.8342 9.03751 11.1307 9.03751C11.3805 9.03751 11.6143 9.05062 11.7942 9.11584C11.6881 8.7292 11.4073 8.14194 9.82826 8.14194Z"
            fill="url(#paint2_linear_21_457)" />
    </g>
    <mask id="mask3_21_457" style="mask-type:luminance" maskUnits="userSpaceOnUse" x="3" y="3"
        width="7" height="5">
        <path
            d="M5.78672 7.09498C6.20926 7.78751 6.36562 7.96036 7.37143 7.96167C8.10975 7.96167 9.29293 7.96167 9.29293 7.96167L6.64391 4.61643C6.05903 3.89369 5.72225 3.76115 5.1855 3.74998H3.75L5.78672 7.09498Z"
            fill="white" />
    </mask>
    <g mask="url(#mask3_21_457)">
        <path
            d="M5.78672 7.09498C6.20926 7.78751 6.36562 7.96036 7.37143 7.96167C8.10975 7.96167 9.29293 7.96167 9.29293 7.96167L6.64391 4.61643C6.05903 3.89369 5.72225 3.76115 5.1855 3.74998H3.75L5.78672 7.09498Z"
            fill="url(#paint3_linear_21_457)" />
    </g>
    <defs>
        <linearGradient id="paint0_linear_21_457" x1="11.4249" y1="9.70922" x2="11.4249"
            y2="16.5264" gradientUnits="userSpaceOnUse">
            <stop stop-color="#ED1C24" />
            <stop offset="0.393196" stop-color="#ED1C24" />
            <stop offset="0.81" stop-color="#751317" />
            <stop offset="1" stop-color="#751317" />
        </linearGradient>
        <linearGradient id="paint1_linear_21_457" x1="8.32178" y1="10.2764" x2="10.8102"
            y2="10.2764" gradientUnits="userSpaceOnUse">
            <stop stop-color="#641F1F" />
            <stop offset="0.736963" stop-color="#D32828" />
            <stop offset="1" stop-color="#D32828" />
        </linearGradient>
        <linearGradient id="paint2_linear_21_457" x1="8.04956" y1="9.9128" x2="10.8221" y2="8.24663"
            gradientUnits="userSpaceOnUse">
            <stop stop-color="#F2F6F7" />
            <stop offset="0.1" stop-color="#F2F6F7" />
            <stop offset="0.223757" stop-color="#F2F6F7" />
            <stop offset="1" stop-color="#97A7AD" />
        </linearGradient>
        <linearGradient id="paint3_linear_21_457" x1="6.52139" y1="8.51008" x2="6.52139"
            y2="3.80017" gradientUnits="userSpaceOnUse">
            <stop stop-color="#202F6E" />
            <stop offset="0.567041" stop-color="#25B3ED" />
            <stop offset="1" stop-color="#25B3ED" />
        </linearGradient>
    </defs>
</svg>