<svg width="18" height="18" viewBox="0 0 18 18" fill="none" xmlns="http://www.w3.org/2000/svg">
    <rect width="18" height="18" rx="9" fill="#FFD700" />
    <path
        d="M4.12695 9.97936C4.15548 9.5073 4.9461 9.20421 5.59995 9.03377C6.49662 8.79959 7.68145 8.67139 8.93649 8.67139H9.00451C11.399 8.67139 13.8755 9.16197 13.8755 9.98381L13.847 10.0809L12.9759 9.82818V9.76964C12.9759 9.39911 11.3449 8.99375 9.00378 8.99375C6.66264 8.99375 5.03386 9.40133 5.03386 9.76816V9.8267L4.16791 10.0698L4.12695 9.97936Z"
        fill="white" />
    <path d="M9.00085 3L4.12549 15H4.87149L9.00085 5.54332L13.1295 15H13.8755L9.00085 3Z"
        fill="#333E48" />
    <path
        d="M9.00384 11.3C6.69634 11.3 4.74283 10.8931 4.25427 10.3114C4.17085 10.2232 4.12512 10.1052 4.12701 9.9831L4.15261 9.92901L5.03026 9.6763V9.77338C5.03026 10.1439 6.66197 10.5493 9.00311 10.5493C11.3442 10.5493 12.9752 10.1402 12.9752 9.77338V9.67334L13.8587 9.91122L13.8748 9.98533C13.8748 10.4589 13.0813 10.762 12.4121 10.9339C11.5 11.1688 10.2911 11.2977 9.00018 11.2977L9.00384 11.3Z"
        fill="white" />
</svg>