<svg width="20" height="24" viewBox="0 0 20 24" fill="none" xmlns="http://www.w3.org/2000/svg">
    <g clip-path="url(#clip0_15_1040)">
        <path
            d="M16.328 15.8667C17.639 15.5253 19.1997 14.9173 19.1997 13.9707V13.9653C19.1997 12.8827 17.0713 12.0827 14.2681 11.6693L9.59984 0L4.93706 11.656C4.20199 11.7653 3.51903 11.904 2.90189 12.0667C1.61277 12.408 0.0603418 13.0133 0.00548562 13.96C-0.0109712 14.1867 0.0795415 14.408 0.252339 14.616C0.699417 15.1547 1.76088 15.616 3.21457 15.96L0 24H1.47289L4.79992 16.2587C6.21795 16.472 7.85815 16.5947 9.60807 16.5947C11.3196 16.5947 12.9625 16.4747 14.4025 16.256L17.7323 24H19.1997L15.9824 15.952C16.1003 15.9253 16.2128 15.8987 16.328 15.8667ZM17.3957 13.5706V13.5733C17.3957 13.9337 16.6749 14.3049 15.4269 14.603L14.5608 12.3648C16.3333 12.6764 17.393 13.137 17.3957 13.5706ZM9.66155 5.16129L12.3703 11.4839C11.4882 11.4124 10.5789 11.3753 9.66969 11.3753H9.5367C8.65189 11.3753 7.78608 11.4097 6.95827 11.4733L9.66155 5.16394V5.16129ZM1.804 13.5719V13.5692C1.804 13.1357 2.86875 12.6805 4.63885 12.3688L3.77137 14.5989C2.52555 14.3035 1.804 13.9269 1.804 13.5719ZM9.60669 15.0968C8.01758 15.0968 6.59286 15.0011 5.41199 14.8442L6.57916 12.1276C7.49427 12.0452 8.51349 12 9.60669 12C10.6971 12 11.7054 12.0452 12.615 12.1249L13.7877 14.8442C12.6096 15.0037 11.1903 15.0968 9.60669 15.0968Z"
            fill="currentColor" />
    </g>
    <defs>
        <clipPath id="clip0_15_1040">
            <rect width="19.1997" height="24" fill="white" />
        </clipPath>
    </defs>
</svg>