<svg width="98.5" height="120" viewBox="0 0 94 111" fill="white" xmlns="http://www.w3.org/2000/svg">
<path d="M44.311 90.141C13.2652 70.1389 -3.9124 24.2367 0.75917 0C29.0103 56.5102 49.6289 66.9408 72.8047 75.1324C79.0026 77.2861 84.1604 78.0109 88.1797 78.3774C92.5964 78.7804 97.9587 77.9971 98.4592 79.8318C98.9885 81.7859 94.1267 85.7079 79.6711 92.5748C65.4125 99.3488 42.0919 108.635 9.9506 119.931C9.84279 119.967 9.43293 120.086 9.33719 119.891C9.2143 119.638 9.52553 119.4 9.65379 119.317L49.7033 93.683C49.933 93.5397 50.2476 93.2077 49.7923 93.0201C49.7923 93.0201 47.8723 92.3639 44.3211 90.141H44.311Z" fill="white" fill-opacity="0.3"/>
</svg>
