<svg width="61" height="60" viewBox="0 0 61 60" fill="none" xmlns="http://www.w3.org/2000/svg">
    <path
        d="M55.55 32.5503H53.75C52.85 27.1503 49.7 22.5003 45.2 19.2003C45.05 19.0503 44.75 18.9003 44.45 18.7503C41.6 21.6003 38.3 22.9503 34.7 22.8003C29.9 22.5003 25.7 19.6503 24.2 15.3003L18.65 11.1003C17.9 10.6503 17.3 10.9503 17.3 11.7003L16.4 19.8003C13.55 22.0503 11.15 24.9003 9.79997 28.2003H6.19997C4.69997 28.2003 3.49997 29.4003 3.49997 30.9003V39.0003C3.49997 40.5003 4.69997 41.7003 6.19997 41.7003H9.34997C10.85 46.3503 14.15 50.4003 18.5 52.9503V58.0503C18.5 58.6503 19.1 59.2503 19.7 59.2503H25.55C26.15 59.2503 26.75 58.6503 26.75 58.0503V55.9503C28.25 56.2503 29.75 56.4003 31.25 56.4003C32.75 56.4003 34.25 56.2503 35.75 55.9503V58.0503C35.75 58.6503 36.35 59.2503 36.95 59.2503H42.8C43.4 59.2503 44 58.6503 44 58.0503V52.9503C49.55 49.6503 53.3 44.2503 54.05 37.9503H55.7C57.2 37.9503 58.4 36.7503 58.4 35.2503C58.4 33.7503 57.05 32.5503 55.55 32.5503ZM15.5 27.6003C15.95 28.2003 16.7 28.6503 17.45 28.6503C18.8 28.6503 19.85 27.6003 19.85 26.2503C19.85 24.9003 18.8 23.8503 17.45 23.8503H17.15C17.6 23.5503 18.2 23.4003 18.8 23.4003C20.75 23.4003 22.25 24.9003 22.25 26.8503C22.25 28.8003 20.75 30.3003 18.8 30.3003C17.3 30.3003 15.95 29.1003 15.5 27.6003ZM35.45 0.450317C40.85 0.450317 45.35 4.95032 45.35 10.3503C45.35 15.7503 40.85 20.2503 35.45 20.2503C30.05 20.2503 25.55 15.7503 25.55 10.3503C25.55 4.95032 30.05 0.450317 35.45 0.450317ZM36.2 15.3003C38.45 15.0003 39.5 13.8003 39.5 12.1503C39.5 10.6503 38.75 9.75032 36.5 9.00032C35 8.55032 34.4 8.25032 34.4 7.80032C34.4 7.50032 34.7 7.05032 35.75 7.05032C36.35 7.05032 36.8 7.05032 37.4 7.20032C38 7.50032 38.6 7.20032 38.75 6.60032C38.9 6.00032 38.45 5.40032 37.85 5.25032C37.25 5.10032 36.8 5.10032 36.35 5.10032V4.65032C36.35 4.05032 35.9 3.60032 35.3 3.60032C34.7 3.60032 34.25 4.05032 34.25 4.65032V5.10032C32.15 5.55032 31.1 6.60032 31.1 8.10032C31.1 9.75032 32.45 10.6503 34.4 11.2503C35.75 11.7003 36.2 12.0003 36.2 12.4503C36.2 13.0503 35.6 13.2003 34.7 13.2003C34.1 13.2003 33.5 13.0503 32.6 12.9003C32 12.7503 31.4 13.0503 31.25 13.6503C31.1 14.2503 31.55 15.0003 32.15 15.1503C32.9 15.3003 33.5 15.4503 34.1 15.4503V15.9003C34.1 16.5003 34.55 16.9503 35.15 16.9503C35.75 16.9503 36.2 16.5003 36.2 15.9003V15.3003Z"
        fill="url(#paint0_linear_174_3067)" />
    <defs>
        <linearGradient id="paint0_linear_174_3067" x1="3.54685" y1="0.469087" x2="58.3906"
            y2="59.0628" gradientUnits="userSpaceOnUse">
            <stop stop-color="#016564" />
            <stop offset="0.494792" stop-color="#1AB0AE" />
            <stop offset="1" stop-color="#01B6B4" stop-opacity="0.83" />
        </linearGradient>
    </defs>
</svg>
    