<svg width="19" height="18" viewBox="0 0 19 18" fill="none" xmlns="http://www.w3.org/2000/svg">
    <path fill-rule="evenodd" clip-rule="evenodd"
        d="M5.48756 0.923488C4.75986 1.03865 4.17898 1.60731 4.02669 2.29661C3.99238 2.45129 3.97522 2.73125 3.97522 3.13651C3.9741 6.58302 3.97438 10.0307 3.97607 13.4794C3.97607 13.4935 3.9831 13.5005 3.99716 13.5005H14.7527C14.7585 13.5005 14.764 13.4982 14.7682 13.494C14.7723 13.4898 14.7746 13.4841 14.7746 13.4781C14.7743 10.0058 14.7744 6.54435 14.775 3.0939C14.775 2.69737 14.7546 2.41782 14.7138 2.25527C14.5151 1.46303 13.7891 0.900709 12.9712 0.900287C10.6431 0.900006 8.31522 0.900147 5.98745 0.900709C5.75093 0.900709 5.5843 0.908302 5.48756 0.923488ZM10.1853 5.25124C10.1887 6.34299 10.188 7.43487 10.1832 8.5269C10.1832 8.54124 10.1884 8.54349 10.1988 8.53365C10.2566 8.47783 10.3192 8.41163 10.3846 8.34262C10.5562 8.16129 10.7462 7.9606 10.9142 7.8781C11.6204 7.53007 12.2637 8.44211 11.7082 9.00233C11.3887 9.3249 11.0681 9.64635 10.7463 9.96667C10.4946 10.2173 10.2996 10.3806 10.1612 10.4569C9.53015 10.804 8.74382 10.6446 8.23717 10.127C7.92585 9.8089 7.61326 9.49195 7.2994 9.17613C7.11829 8.99417 7.0079 8.8558 6.96825 8.76103C6.73201 8.19744 7.35298 7.59208 7.91868 7.87093C7.99405 7.90805 8.10317 7.99861 8.24603 8.1426C8.40409 8.30177 8.56327 8.45983 8.72357 8.61676C8.73679 8.62969 8.7434 8.62688 8.7434 8.60832C8.74452 7.42461 8.7448 6.24146 8.74424 5.05888C8.74396 4.83755 8.76421 4.6764 8.80499 4.57544C9.04628 3.97852 9.99798 3.98696 10.1562 4.62986C10.1745 4.70438 10.1842 4.91151 10.1853 5.25124ZM2.61057 10.1784C1.8189 10.5029 1.22324 11.0267 0.82361 11.7498C-0.379929 13.9265 0.956914 16.6711 3.41883 17.0567C3.5991 17.0848 3.87949 17.0988 4.26 17.0988L14.3633 17.0997C14.7646 17.0997 15.0457 17.0903 15.2066 17.0714C17.0201 16.8571 18.3671 15.3022 18.3751 13.4924C18.3819 12.0219 17.5019 10.7323 16.1418 10.1788C16.1311 10.1743 16.1258 10.178 16.1258 10.1898C16.1241 11.187 16.1243 12.184 16.1262 13.1807C16.1268 13.4777 16.1082 13.6983 16.0705 13.8426C16.0043 14.097 15.8335 14.4775 15.6128 14.6378C15.3905 14.7989 15.0526 14.8491 14.7856 14.8491C11.2772 14.85 7.76881 14.8505 4.26042 14.8508C3.99438 14.8508 3.79864 14.836 3.67321 14.8065C3.42347 14.7479 3.15138 14.6158 2.94636 14.4581C2.66752 14.2433 2.62828 13.7548 2.62744 13.4106C2.62491 12.3405 2.62463 11.2668 2.6266 10.1894C2.62659 10.1875 2.62611 10.1856 2.62522 10.1839C2.62432 10.1822 2.62303 10.1808 2.62145 10.1797C2.61988 10.1786 2.61807 10.1779 2.61617 10.1777C2.61427 10.1775 2.61235 10.1777 2.61057 10.1784Z"
        fill="currentColor" />
</svg>