<svg width="28" height="28" viewBox="0 0 28 28" fill="none" xmlns="http://www.w3.org/2000/svg">
<rect width="28" height="28" rx="14" fill="#016564"/>
<path d="M10.6591 17.3284V5.65866C10.6591 5.65533 10.6604 5.65214 10.6628 5.64979C10.6651 5.64744 10.6683 5.64612 10.6716 5.64612L12.3157 5.64417C12.3191 5.64417 12.3223 5.64549 12.3246 5.64784C12.327 5.65019 12.3283 5.65337 12.3283 5.6567V22.322C12.3283 22.3245 12.3275 22.327 12.3261 22.329C12.3247 22.3311 12.3227 22.3327 12.3204 22.3336C12.3181 22.3345 12.3156 22.3347 12.3131 22.3342C12.3107 22.3337 12.3085 22.3325 12.3067 22.3307L7.33878 17.3625C7.33699 17.3608 7.33576 17.3586 7.33524 17.3561C7.33472 17.3537 7.33493 17.3512 7.33586 17.3488C7.33678 17.3465 7.33837 17.3446 7.34043 17.3431C7.34248 17.3417 7.34491 17.341 7.3474 17.341H10.6466C10.6499 17.341 10.6531 17.3396 10.6554 17.3373C10.6578 17.3349 10.6591 17.3318 10.6591 17.3284Z" fill="white"/>
<path d="M17.342 10.6718V22.3408C17.342 22.3443 17.3406 22.3477 17.3381 22.3502C17.3356 22.3527 17.3322 22.3541 17.3287 22.3541H15.6862C15.6826 22.3541 15.6792 22.3527 15.6768 22.3502C15.6743 22.3477 15.6729 22.3443 15.6729 22.3408V5.67503C15.6729 5.6724 15.6736 5.66983 15.6751 5.66765C15.6766 5.66546 15.6786 5.66376 15.6811 5.66276C15.6835 5.66175 15.6862 5.66149 15.6888 5.662C15.6913 5.66251 15.6937 5.66377 15.6956 5.66563L20.6651 10.6357C20.6669 10.6376 20.6682 10.64 20.6687 10.6426C20.6692 10.6451 20.669 10.6478 20.668 10.6502C20.667 10.6527 20.6652 10.6547 20.6631 10.6562C20.6609 10.6577 20.6583 10.6584 20.6557 10.6585H17.3553C17.3518 10.6585 17.3484 10.6599 17.3459 10.6624C17.3434 10.6649 17.342 10.6682 17.342 10.6718Z" fill="white"/>
</svg>
