<svg width="61" height="60" viewBox="0 0 61 60" fill="none" xmlns="http://www.w3.org/2000/svg">
    <path
        d="M12.3357 48.0674L0.525544 43.9342C0.519404 43.9323 0.513908 43.9288 0.509586 43.924C0.505264 43.9193 0.502262 43.9134 0.500873 43.907C0.499485 43.9006 0.499756 43.8939 0.501659 43.8876C0.503562 43.8812 0.507035 43.8754 0.511739 43.8707L6.11105 38.2742C6.1451 38.2401 6.18559 38.2268 6.23253 38.2341L14.2146 39.5401C14.2355 39.5435 14.2569 39.5417 14.2768 39.535C14.2968 39.5282 14.3148 39.5167 14.3292 39.5014L26.8655 26.4391C26.9124 26.3904 26.9069 26.348 26.8489 26.3121L1.9944 11.0093C1.94562 10.9789 1.94148 10.943 1.98197 10.9016L8.16109 4.71974C8.19974 4.68108 8.24438 4.6705 8.295 4.68799L38.1607 14.571C38.1827 14.5784 38.2061 14.5794 38.2284 14.574C38.2507 14.5687 38.2708 14.5571 38.2864 14.5406C42.0616 10.6062 45.8308 6.67407 49.594 2.74424C50.2084 2.10231 50.8669 1.37617 51.5764 0.927504C52.8539 0.118531 54.216 -0.161249 55.6627 0.0881614C59.887 0.818446 61.9316 5.72336 59.3776 9.20222C59.1733 9.48016 58.5319 10.1377 57.4532 11.175C53.6375 14.8443 49.8177 18.51 45.9937 22.172C45.9274 22.2346 45.909 22.3091 45.9385 22.3957L55.816 52.2338C55.8201 52.2472 55.8207 52.2615 55.8175 52.2751C55.8143 52.2887 55.8076 52.3011 55.798 52.3111L49.6023 58.5164C49.5572 58.5615 49.5181 58.5574 49.485 58.504L34.1766 33.6398C34.1708 33.6305 34.1631 33.6227 34.1538 33.6168C34.1446 33.6109 34.1342 33.6071 34.1233 33.6058C34.1125 33.6045 34.1014 33.6056 34.0911 33.6091C34.0807 33.6126 34.0713 33.6184 34.0634 33.626L21.0177 46.1458C20.968 46.1936 20.9487 46.2512 20.9597 46.3183L22.2546 54.2797C22.2576 54.2999 22.2559 54.3204 22.2497 54.3396C22.2434 54.3588 22.2328 54.3761 22.2187 54.3901L16.6512 59.9687C16.6024 60.0175 16.567 60.0092 16.5449 59.9439L12.4186 48.1503C12.4047 48.1089 12.3771 48.0812 12.3357 48.0674Z"
        fill="url(#paint0_linear_192_2594)" />
    <defs>
        <linearGradient id="paint0_linear_192_2594" x1="0.551232" y1="0.0191522" x2="56.1312"
            y2="63.6177" gradientUnits="userSpaceOnUse">
            <stop stop-color="#016564" />
            <stop offset="0.494792" stop-color="#1AB0AE" />
            <stop offset="1" stop-color="#01B6B4" stop-opacity="0.83" />
        </linearGradient>
    </defs>
</svg>
    