<svg width="19" height="18" viewBox="0 0 19 18" fill="none" xmlns="http://www.w3.org/2000/svg">
    <path
        d="M9.03922 0H9.21465C9.64496 0.0328125 10.0224 0.211406 10.347 0.535781C12.7599 2.94797 15.1726 5.36051 17.585 7.7734C17.9202 8.10902 18.1002 8.50172 18.125 8.95148V9.05449C18.0494 10.0793 17.2313 10.7557 16.2185 10.6502C16.2156 10.6499 16.2126 10.6502 16.2099 10.6511C16.2071 10.652 16.2046 10.6535 16.2024 10.6554C16.2003 10.6573 16.1985 10.6597 16.1974 10.6623C16.1962 10.6649 16.1956 10.6678 16.1956 10.6706C16.1954 12.3459 16.1955 14.0216 16.196 15.6976C16.196 16.0393 16.1852 16.2729 16.1636 16.3983C16.0096 17.2941 15.2503 17.9469 14.3362 18H11.3184C10.977 17.929 10.8568 17.7036 10.8568 17.3742C10.8561 15.9977 10.8548 14.6214 10.8529 13.2451C10.8522 12.7424 10.4715 12.3588 9.96875 12.3557C9.4032 12.3521 8.83777 12.3526 8.27246 12.3571C7.79363 12.3606 7.39285 12.741 7.39285 13.2188C7.39262 14.5849 7.39262 15.9511 7.39285 17.3173C7.39285 17.49 7.37586 17.6146 7.34188 17.691C7.26875 17.8557 7.12988 17.9587 6.92527 18H3.90922C2.8352 17.9262 2.0491 17.0873 2.0498 16.0225C2.05098 14.2379 2.05191 12.4555 2.05262 10.6752C2.05264 10.6713 2.05185 10.6675 2.0503 10.664C2.04875 10.6605 2.04647 10.6573 2.04362 10.6547C2.04077 10.6522 2.0374 10.6502 2.03374 10.649C2.03008 10.6478 2.02621 10.6474 2.02238 10.6478C1.0373 10.7522 0.202695 10.0853 0.125 9.09316V8.89945C0.160859 8.46984 0.329961 8.1041 0.632305 7.80223C3.07074 5.36566 5.50871 2.92863 7.94621 0.491133C8.24246 0.195117 8.6068 0.0314062 9.03922 0Z"
        fill="currentColor" />
</svg>