<svg width="17" height="17" viewBox="0 0 17 17" fill="none" xmlns="http://www.w3.org/2000/svg">
    <g clip-path="url(#clip0_185_2303)">
        <path
            d="M7.74321 0.499954H9.03415C9.99581 0.505996 10.953 0.5761 11.9057 0.710267C13.6288 0.953079 14.927 2.26964 15.1254 4.00089C15.1288 4.03058 15.117 4.03464 15.1198 4.06183C15.3038 5.85245 15.3363 7.61558 15.301 9.43745C15.3008 9.44933 15.2957 9.45214 15.2857 9.44589C13.6766 8.44027 11.6685 8.53402 10.1741 9.71308C8.09946 11.3503 7.97196 14.4396 9.8279 16.2828C9.82909 16.284 9.8299 16.2856 9.83024 16.2873C9.83058 16.289 9.83043 16.2907 9.8298 16.2923C9.82918 16.2939 9.82811 16.2953 9.82672 16.2963C9.82533 16.2974 9.82368 16.298 9.82196 16.2981C9.06196 16.3228 8.30196 16.3218 7.5404 16.3209C6.72894 16.3196 5.9204 16.2696 5.11477 16.1709C4.79686 16.1319 4.5904 16.104 4.4954 16.0871C2.9154 15.8046 1.66415 14.5318 1.44727 12.9375C1.42623 12.7835 1.39748 12.4915 1.36102 12.0615C1.22633 10.4728 1.22602 8.87433 1.24446 7.2812C1.25717 6.15516 1.31988 5.06204 1.43258 4.00183C1.58508 2.56527 2.55571 1.36745 3.9129 0.880892C3.9229 0.87735 3.93342 0.875788 3.94446 0.876204C3.95459 0.876617 3.96464 0.875242 3.97415 0.872142C4.20498 0.794433 4.47925 0.736204 4.79696 0.697454C5.84633 0.568913 6.82842 0.503079 7.74321 0.499954ZM12.4241 5.38365C12.4238 5.19004 12.3465 5.0045 12.2094 4.86783C12.0723 4.73117 11.8865 4.65459 11.6928 4.65492L4.8516 4.66686C4.658 4.6672 4.47245 4.74444 4.33579 4.88158C4.19913 5.01872 4.12254 5.20453 4.12288 5.39814L4.12293 5.42626C4.12327 5.61987 4.2005 5.80541 4.33764 5.94207C4.47478 6.07874 4.66059 6.15532 4.8542 6.15499L11.6954 6.14304C11.889 6.14271 12.0746 6.06547 12.2113 5.92833C12.3479 5.79119 12.4245 5.60538 12.4242 5.41177L12.4241 5.38365ZM9.50699 8.57401C9.50733 8.38231 9.43149 8.19833 9.29618 8.06254C9.16086 7.92675 8.97714 7.85028 8.78544 7.84994L4.8617 7.84309C4.67 7.84276 4.48601 7.91859 4.35022 8.05391C4.21443 8.18923 4.13796 8.37294 4.13762 8.56464L4.13755 8.60652C4.13722 8.79822 4.21305 8.9822 4.34837 9.11799C4.48369 9.25378 4.6674 9.33026 4.8591 9.33059L8.78285 9.33744C8.97455 9.33777 9.15853 9.26194 9.29432 9.12662C9.43011 8.99131 9.50658 8.80759 9.50692 8.61589L9.50699 8.57401Z"
            fill="currentColor" />
        <path
            d="M13.0384 16.5H12.8259C11.8588 16.4546 11.0606 16.0868 10.4312 15.3966C9.45652 14.3275 9.29746 12.7103 10.0253 11.4631C10.6821 10.3375 11.964 9.68126 13.2743 9.82344C15.0206 10.0125 16.3093 11.5122 16.2646 13.2422C16.244 14.0431 15.9221 14.8328 15.3728 15.4234C14.7571 16.0851 13.979 16.444 13.0384 16.5ZM13.25 12.8272C13.2483 12.3024 13.2481 11.7776 13.2493 11.2528C13.2495 11.112 13.2418 11.0171 13.2262 10.9681C13.1203 10.6381 12.6337 10.6181 12.489 10.9353C12.4651 10.9878 12.4531 11.0694 12.4531 11.18C12.4523 11.8313 12.4519 12.4825 12.4521 13.1338C12.4525 13.3438 12.4812 13.5041 12.6693 13.5963C12.73 13.6263 12.8276 13.6412 12.9621 13.6409C13.3861 13.6407 13.8101 13.6402 14.234 13.6394C14.5365 13.6391 14.7206 13.3538 14.6043 13.0759C14.5262 12.8891 14.3518 12.8459 14.1487 12.8459C13.8548 12.8459 13.5609 12.8455 13.2671 12.8447C13.2557 12.8445 13.25 12.8387 13.25 12.8272Z"
            fill="currentColor" />
    </g>
    <defs>
        <clipPath id="clip0_185_2303">
            <rect width="16" height="16" fill="currentColor" transform="translate(0.75 0.5)" />
        </clipPath>
    </defs>
</svg>
    