<svg width="19" height="18" viewBox="0 0 19 18" fill="none" xmlns="http://www.w3.org/2000/svg">
    <g clip-path="url(#clip0_164_1675)">
        <path fill-rule="evenodd" clip-rule="evenodd"
            d="M10.8762 4.86653C9.87505 4.31427 8.72422 4 7.5 4C3.63401 4 0.5 7.13401 0.5 11C0.5 14.866 3.63401 18 7.5 18C11.366 18 14.5 14.866 14.5 11C14.5 9.80634 14.2012 8.68246 13.6744 7.69907L12.1721 9.21537C12.384 9.76964 12.5 10.3713 12.5 11C12.5 13.7614 10.2614 16 7.5 16C4.73858 16 2.5 13.7614 2.5 11C2.5 8.23858 4.73858 6 7.5 6C8.168 6 8.8054 6.13099 9.38791 6.3687L10.8762 4.86653ZM8.60834 7.15554C8.25639 7.05426 7.88453 7 7.5 7C5.29086 7 3.5 8.79086 3.5 11C3.5 13.2091 5.29086 15 7.5 15C9.70914 15 11.5 13.2091 11.5 11C11.5 10.6607 11.4578 10.3313 11.3782 10.0167L10.0661 11.341L9.58539 11.8503C9.41841 12.0271 9.22936 12.1755 9.02532 12.2937C8.65846 12.7258 8.11125 13 7.5 13C6.39543 13 5.5 12.1046 5.5 11C5.5 10.4523 5.72017 9.95599 6.07683 9.5948C6.15178 9.47864 6.24471 9.372 6.3547 9.27925L7.26387 8.51256L8.60834 7.15554Z"
            fill="currentColor" />
        <path d="M17.5 1V3H15.5V1H17.5Z" fill="currentColor" />
        <path d="M7.5 11L15.5 3M17.5 1V3H15.5M17.5 1L15.5 3M17.5 1H15.5V3" stroke="currentColor"
            stroke-width="2" />
    </g>
    <defs>
        <clipPath id="clip0_164_1675">
            <rect width="18" height="18" fill="white" transform="translate(0.5)" />
        </clipPath>
    </defs>
</svg>
    