<svg width="19" height="18" viewBox="0 0 19 18" fill="none" xmlns="http://www.w3.org/2000/svg">
    <g clip-path="url(#clip0_15_2100)">
        <path
            d="M8.34383 1.6299C9.21887 2.47189 10.578 2.44763 11.4348 1.60353C11.5378 1.50157 11.6591 1.32896 11.7877 1.23087C11.978 1.08603 12.1877 1.01454 12.4167 1.01642C12.5653 1.01782 12.7699 1.07115 13.0305 1.17638C13.8187 1.49466 14.5409 1.92474 15.1972 2.46661C15.6036 2.80236 15.7309 3.20279 15.5526 3.7122C15.0917 5.02704 15.8803 6.41079 17.2612 6.6488C17.5882 6.70505 17.8599 6.85482 18.0318 7.13572C18.105 7.25478 18.1627 7.44087 18.2052 7.694C18.3545 8.5872 18.3439 9.47923 18.1735 10.3701C18.0976 10.7656 17.9109 11.0504 17.5414 11.2054C17.4845 11.2293 17.3652 11.2583 17.1835 11.2922C15.8307 11.5447 15.0204 12.8809 15.4784 14.1961C15.5422 14.3792 15.5779 14.4973 15.5857 14.5505C15.626 14.8306 15.5613 15.0858 15.3916 15.3162C15.2875 15.4576 15.1571 15.5497 14.9725 15.6924C14.46 16.0883 13.8975 16.4258 13.285 16.7049C13.0678 16.8037 12.8579 16.9042 12.6308 16.9127C12.3666 16.9227 12.1346 16.8465 11.9347 16.6838C11.8995 16.6552 11.8118 16.5589 11.6714 16.3948C10.7482 15.3162 9.09231 15.3486 8.2352 16.4957C8.00493 16.804 7.72051 16.9963 7.33239 16.9904C7.19598 16.9885 7.01575 16.943 6.79168 16.854C6.08574 16.5734 5.42199 16.1978 4.80043 15.7272C4.60883 15.582 4.41758 15.4407 4.30016 15.2466C4.10399 14.9225 4.12508 14.5822 4.27133 14.2387C4.84016 12.9052 4.00731 11.4617 2.60387 11.2135C2.38754 11.1753 2.25641 11.1477 2.21047 11.1309C1.96485 11.0406 1.78157 10.8828 1.66063 10.6573C1.59711 10.5392 1.54942 10.3663 1.51754 10.1388C1.39965 9.29783 1.4136 8.45947 1.55938 7.62368C1.60203 7.37783 1.6591 7.19443 1.73059 7.07349C1.92711 6.74126 2.24457 6.62314 2.61196 6.5697C3.99078 6.37001 4.79516 5.02458 4.38207 3.70587C4.31692 3.49728 4.28117 3.36732 4.27485 3.31599C4.22633 2.91275 4.38699 2.59423 4.70199 2.34568C5.37699 1.81318 6.11867 1.39505 6.92703 1.0913C7.28774 0.955598 7.61926 0.99134 7.9216 1.19853C8.08262 1.30857 8.2359 1.52583 8.34383 1.6299ZM12.6867 8.9997C12.6867 8.25406 12.3905 7.53896 11.8632 7.01171C11.336 6.48446 10.6209 6.18825 9.87524 6.18825C9.1296 6.18825 8.41449 6.48446 7.88725 7.01171C7.36 7.53896 7.06379 8.25406 7.06379 8.9997C7.06379 9.74534 7.36 10.4604 7.88725 10.9877C8.41449 11.5149 9.1296 11.8111 9.87524 11.8111C10.6209 11.8111 11.336 11.5149 11.8632 10.9877C12.3905 10.4604 12.6867 9.74534 12.6867 8.9997Z"
            fill="currentColor" />
    </g>
    <defs>
        <clipPath id="clip0_15_2100">
            <rect width="18" height="18" fill="white" transform="translate(0.875)" />
        </clipPath>
    </defs>
</svg>