<svg width="19" height="18" viewBox="0 0 19 18" fill="none" xmlns="http://www.w3.org/2000/svg">
    <path d="M6.90002 4V3C6.90002 1.89543 7.79546 1 8.90002 1H10.9C12.0046 1 12.9 1.89543 12.9 3V4"
        stroke="currentColor" stroke-width="2" />
    <path
        d="M4.90002 17H7.90002V17C7.90002 17.5523 7.45231 18 6.90002 18H5.90002C5.34774 18 4.90002 17.5523 4.90002 17V17Z"
        fill="currentColor" />
    <path
        d="M11.9 17H14.9V17C14.9 17.5523 14.4523 18 13.9 18H12.9C12.3477 18 11.9 17.5523 11.9 17V17Z"
        fill="currentColor" />
    <path fill-rule="evenodd" clip-rule="evenodd"
        d="M3.76732 4.8575C3.84208 3.81089 4.71296 3 5.76224 3H14.0378C15.087 3 15.9579 3.8109 16.0327 4.85751L16.747 14.8575C16.8297 16.0152 15.9127 17 14.752 17H5.04795C3.88727 17 2.97034 16.0152 3.05304 14.8575L3.76732 4.8575ZM5.90001 10H13.9V13C13.9 14.1046 13.0046 15 11.9 15H7.90001C6.79544 15 5.90001 14.1046 5.90001 13V10ZM6.90001 5C6.34772 5 5.90001 5.44772 5.90001 6C5.90001 6.55228 6.34772 7 6.90001 7H12.9C13.4523 7 13.9 6.55228 13.9 6C13.9 5.44772 13.4523 5 12.9 5H6.90001Z"
        fill="currentColor" />
</svg>
    