<svg width="15" height="15" viewBox="0 0 15 15" fill="currentColor"
    xmlns="http://www.w3.org/2000/svg">
    <path fill-rule="evenodd" clip-rule="evenodd"
        d="M13.0335 7.5C13.0335 10.7217 10.4219 13.3333 7.2002 13.3333C3.97853 13.3333 1.36686 10.7217 1.36686 7.5C1.36686 4.27834 3.97853 1.66667 7.2002 1.66667C10.4219 1.66667 13.0335 4.27834 13.0335 7.5ZM14.2002 7.5C14.2002 11.366 11.0662 14.5 7.2002 14.5C3.3342 14.5 0.200195 11.366 0.200195 7.5C0.200195 3.63401 3.3342 0.5 7.2002 0.5C11.0662 0.5 14.2002 3.63401 14.2002 7.5ZM6.45635 6.26451V11.2917H7.94968V6.26451H6.45635ZM6.54035 5.07162C6.70213 5.20417 6.92302 5.27044 7.20302 5.27044C7.47679 5.27044 7.69146 5.19785 7.84702 5.05269C8.00879 4.90752 8.08968 4.71818 8.08968 4.48465C8.08968 4.2385 8.01191 4.04915 7.85635 3.91661C7.70079 3.77775 7.48302 3.70833 7.20302 3.70833C6.92924 3.70833 6.71146 3.78091 6.54968 3.92608C6.38791 4.07124 6.30702 4.25743 6.30702 4.48465C6.30702 4.73711 6.38479 4.93277 6.54035 5.07162Z"
        fill="currentColor" fill-opacity="0.3" />
</svg>